<svg xmlns="http://www.w3.org/2000/svg" viewBox="0 0 57.76 197.2"><defs><style>.cls-1{fill:#fff;}</style></defs><g id="Layer_2" data-name="Layer 2"><g id="Layer_1-2" data-name="Layer 1"><path class="cls-1" d="M33.62,197.2H23.85L0,140.71H10.41L28.79,185.5l18.56-44.79H57.76Z"/><path class="cls-1" d="M38.51,129.08H26.58q-7-6.17-7-16.17a28.54,28.54,0,0,1,1-7.33,89.77,89.77,0,0,1,4-10.94,46.92,46.92,0,0,0,2.21-6,14.93,14.93,0,0,0-1.74-11.86,28.7,28.7,0,0,0-5.7-7.19H31.76a25.29,25.29,0,0,1,5.06,7.53,22.31,22.31,0,0,1,1.57,8.58,26.9,26.9,0,0,1-.81,6.67,72.15,72.15,0,0,1-3.9,10.06Q30.6,109.3,30.6,113.9a15.77,15.77,0,0,0,1.6,7A35.15,35.15,0,0,0,38.51,129.08Z"/><path class="cls-1" d="M38.51,59.51H26.58q-7-6.16-7-16.17a28.54,28.54,0,0,1,1-7.33,89.16,89.16,0,0,1,4-10.94,46.92,46.92,0,0,0,2.21-6,15.89,15.89,0,0,0,.53-4,16,16,0,0,0-2.27-7.83A28.66,28.66,0,0,0,19.43,0H31.76a25.17,25.17,0,0,1,5.06,7.53,22.27,22.27,0,0,1,1.57,8.58,26.77,26.77,0,0,1-.81,6.66,71.66,71.66,0,0,1-3.9,10.07Q30.6,39.72,30.6,44.33a15.77,15.77,0,0,0,1.6,7A35.15,35.15,0,0,0,38.51,59.51Z"/></g></g></svg>