<?xml version="1.0" encoding="utf-8"?>
<!-- Generator: Adobe Illustrator 19.1.0, SVG Export Plug-In . SVG Version: 6.00 Build 0)  -->
<svg version="1.1" id="Layer_8" xmlns="http://www.w3.org/2000/svg" xmlns:xlink="http://www.w3.org/1999/xlink" x="0px" y="0px"
	 viewBox="0 0 2522.7 526.8" style="enable-background:new 0 0 2522.7 526.8;" xml:space="preserve">
<style type="text/css">
	.st0{fill:#FFFFFF;}
</style>
<g>
	<path class="st0" d="M423.3,339.3c1.5-4.7,2.6-8.2,2.6-11c0-7.3-4.1-9.7-19.8-10.3v-12.3h54.8V318c-6.9,1.1-12,1.9-14.6,8.8
		l-55,148.1h-13.3l-38.5-99.8L300.3,475H287l-59.3-148.1c-2.6-6.7-7.7-7.7-14.4-8.8v-12.3h74V318c-15.7,0.6-19.8,3-19.8,10.3
		c0,2.8,1.1,5.8,3,10.7l32.5,87.1l28.2-72.7l-10.3-26.7c-2.6-6.7-7.7-7.7-14.4-8.8v-12.3h71.8V318c-15.7,0.6-19.8,3-19.8,10.3
		c0,2.8,1.1,5.8,3.2,12l31.2,85.1L423.3,339.3z"/>
	<path class="st0" d="M554,401.9v7.1h-79.1c0,26,13.1,41.9,38.3,41.9c15.3,0,25.8-6.9,33.1-15.7l7.7,3.9
		c-5.6,18.1-21.1,36.5-52,36.5c-34.2,0-56.8-22.6-56.8-56.3c0-38.5,26.2-64.1,59.8-64.1C537.3,355.2,554,375.6,554,401.9z
		 M475.3,397.1h48.2c-0.2-15.9-7.7-27.5-23.2-27.5C485.7,369.6,477.3,381.2,475.3,397.1z"/>
	<path class="st0" d="M573.4,464.2l-1.3-28.2h14.4c3.7,17.4,13.3,26.7,30.7,26.7c12.9,0,21.7-5.4,21.7-15.9
		c0-9.2-6.7-12.5-17.8-15.3l-15.9-3.9c-19.1-4.5-32-14.6-32-36.3c0-23,17.2-36.1,44.1-36.1c15.5,0,28.6,3.2,38.5,9.5v25.2h-13.1
		c-3.7-14.8-12.7-21.5-27.1-21.5c-9.9,0-17,4.7-17,13.8c0,8.2,4.7,11.2,14.4,13.8l16.3,4.1c21.5,5.2,34.4,15.3,34.4,37.8
		c0,24.5-19.3,37.8-47.1,37.8C597.9,475.6,583.1,470.7,573.4,464.2z"/>
	<path class="st0" d="M728.2,450c0,9.9,5.4,11,15.3,12.3v11.2h-62.1v-11.2c9.9-1.3,15-2.4,15-12.3V324.5l-14-9V309l38.9-9.7h8
		l-1.1,18.7V450z"/>
	<path class="st0" d="M866.8,401.9v7.1h-79.1c0,26,13.1,41.9,38.3,41.9c15.3,0,25.8-6.9,33.1-15.7l7.7,3.9
		c-5.6,18.1-21.1,36.5-52,36.5c-34.2,0-56.8-22.6-56.8-56.3c0-38.5,26.2-64.1,59.8-64.1C850.1,355.2,866.8,375.6,866.8,401.9z
		 M788.2,397.1h48.2c-0.2-15.9-7.7-27.5-23.2-27.5C798.5,369.6,790.1,381.2,788.2,397.1z"/>
	<path class="st0" d="M885.8,377.3c-2.1-4.7-3.9-5.6-12.7-8.6v-11.4h64.1v11.4c-11.4,1.5-15.3,2.6-15.3,7.7c0,1.7,0.2,3,1.5,5.8
		l24.5,57.4l23-57.4c1.1-2.8,1.5-4.1,1.5-5.8c0-5.2-3.9-6.2-15.3-7.7v-11.4h45.8v11.4c-8.6,3-10.5,3.9-12.7,8.6l-52,119.1
		c-10.3,23.6-20.6,30.3-34.6,30.3c-9.5,0-16.3-3.9-18.9-7.7v-16.8h14.6c14.6,0,21.9-2.2,28.4-17.6l4.5-10.8L885.8,377.3z"/>
	<path class="st0" d="M1110,441.8c0,9.5,1.9,14.6,8.4,14.6c1.9,0,6.2-0.4,9.5-1.3l2.1,8.8c-7.5,7.3-18.1,11.6-27.9,11.6
		c-12.7,0-19.3-7.5-23.2-19.1c-8,8.8-21.1,18.7-38.5,18.7c-20.2,0-32-12-32-29.9c0-19.6,13.5-24.7,30.1-29.7l39.8-12.3v-8.2
		c0-17.4-7.1-27.3-20.6-27.3c-9.5,0-14.4,5.2-14.4,14.4c0,3.4,0.6,7.7,1.5,12.7l-22.8,3c-4.7-2.6-7.3-7.1-7.3-13.1
		c0-19.3,20.4-29.7,47.1-29.7c29.7,0,48.4,10.1,48.4,44.3V441.8z M1078.2,447v-32.2l-26.9,9c-7.3,2.8-10.5,6.9-10.5,14.8
		c0,10.3,6.2,16.8,15.7,16.8C1064.7,455.4,1071.1,452.2,1078.2,447z"/>
	<path class="st0" d="M1235.1,394.5c0-12.7-6-17.4-18.3-17.4c-10.1,0-21.3,4.1-28.8,8.8V450c0,9.9,5.4,11,15.3,12.3v11.2h-62.1
		v-11.2c9.9-1.3,15-2.4,15-12.3v-67.5l-14-10.1V366l38.9-11.2h8l-1.1,21.5c9.5-10.3,24.9-21.1,42.8-21.1c21.3,0,36.1,10.8,36.1,35.3
		V450c0,9.9,5.4,11,15.3,12.3v11.2h-62.1v-11.2c9.9-1.3,15-2.4,15-12.3V394.5z"/>
	<path class="st0" d="M1396.2,412.8c0,27.5,13.3,43.6,39.6,43.6c27.1,0,45.1-11.2,45.1-45.6v-76.1c0-13.5-6.9-16.1-23-16.8v-12.3
		h63.2V318c-16.1,0.6-21.9,3.2-21.9,16.8v81.1c0,40.8-31.2,59.8-66.4,59.8c-44.3,0-70.9-19.8-70.9-60v-80.8
		c0-13.5-5.6-16.1-21.7-16.8v-12.3h77.8V318c-16.1,0.6-21.7,3.2-21.7,16.8V412.8z"/>
	<path class="st0" d="M1616.1,394.5c0-12.7-6-17.4-18.3-17.4c-10.1,0-21.3,4.1-28.8,8.8V450c0,9.9,5.4,11,15.3,12.3v11.2h-62.1
		v-11.2c9.9-1.3,15-2.4,15-12.3v-67.5l-14-10.1V366l38.9-11.2h8l-1.1,21.5c9.5-10.3,24.9-21.1,42.8-21.1c21.3,0,36.1,10.8,36.1,35.3
		V450c0,9.9,5.4,11,15.3,12.3v11.2h-62.1v-11.2c9.9-1.3,15-2.4,15-12.3V394.5z"/>
	<path class="st0" d="M1726,450c0,9.9,5.4,11,15.3,12.3v11.2h-62.1v-11.2c9.9-1.3,15-2.4,15-12.3v-67.5l-14-10.1V366l38.9-11.2h8
		l-1.1,21.5V450z M1709.9,302.7c12.3,0,20.2,8.4,20.2,19.3c0,10.5-8,18.9-20.2,18.9c-12,0-19.8-8.4-19.8-18.9
		C1690.1,311.1,1697.8,302.7,1709.9,302.7z"/>
	<path class="st0" d="M1877.8,368.7c-8.8,3-10.5,3.9-12.7,8.6l-45.6,97.6h-9l-49.9-97.6c-2.4-4.7-3.9-5.6-12.7-8.6v-11.4h63.9v11.4
		c-11.4,1.5-15.3,2.6-15.3,7.7c0,1.7,0.2,3,1.5,5.8l24.5,53.3l23.2-53.3c1.1-2.8,1.5-4.1,1.5-5.8c0-5.2-3.9-6.2-15.3-7.7v-11.4h45.8
		V368.7z"/>
	<path class="st0" d="M1991.3,401.9v7.1h-79.1c0,26,13.1,41.9,38.3,41.9c15.3,0,25.8-6.9,33.1-15.7l7.7,3.9
		c-5.6,18.1-21.1,36.5-52,36.5c-34.2,0-56.8-22.6-56.8-56.3c0-38.5,26.2-64.1,59.8-64.1C1974.5,355.2,1991.3,375.6,1991.3,401.9z
		 M1912.6,397.1h48.2c-0.2-15.9-7.7-27.5-23.2-27.5C1922.9,369.6,1914.5,381.2,1912.6,397.1z"/>
	<path class="st0" d="M2055.4,390.2c11.2-23.4,21.1-35,37.8-35c5.2,0,8.4,1.3,10.5,3v27.1h-7.1c-13.8,0-29,2.4-41.3,14.4v49.9
		c0,10.3,5.4,11,19.6,12.7v11.2h-66.4v-11.2c9.9-1.3,15-2.4,15-12.3v-67.5l-14-10.1V366l38.9-11.2h8L2055.4,390.2z"/>
	<path class="st0" d="M2119,464.2l-1.3-28.2h14.4c3.7,17.4,13.3,26.7,30.7,26.7c12.9,0,21.7-5.4,21.7-15.9c0-9.2-6.7-12.5-17.8-15.3
		l-15.9-3.9c-19.1-4.5-32-14.6-32-36.3c0-23,17.2-36.1,44.1-36.1c15.5,0,28.6,3.2,38.5,9.5v25.2h-13.1
		c-3.7-14.8-12.7-21.5-27.1-21.5c-9.9,0-17,4.7-17,13.8c0,8.2,4.7,11.2,14.4,13.8l16.3,4.1c21.5,5.2,34.4,15.3,34.4,37.8
		c0,24.5-19.3,37.8-47.1,37.8C2143.5,475.6,2128.7,470.7,2119,464.2z"/>
	<path class="st0" d="M2275.9,450c0,9.9,5.4,11,15.3,12.3v11.2h-62.1v-11.2c9.9-1.3,15-2.4,15-12.3v-67.5l-14-10.1V366l38.9-11.2h8
		l-1.1,21.5V450z M2259.8,302.7c12.3,0,20.2,8.4,20.2,19.3c0,10.5-8,18.9-20.2,18.9c-12,0-19.8-8.4-19.8-18.9
		C2240,311.1,2247.8,302.7,2259.8,302.7z"/>
	<path class="st0" d="M2349.9,357.4h32.2v14h-32.2v65.4c0,13.3,4.9,18.5,16.1,18.5c6.2,0,12.7-1.9,18.3-4.5l3.9,8.6
		c-8,8.6-20.2,16.3-37.2,16.3c-17.2,0-32.9-8.4-32.9-32.9v-71.4h-16.6v-9.7c13.3-5.8,26.7-16.6,38.1-30.1h10.3V357.4z"/>
	<path class="st0" d="M2405.6,377.3c-2.1-4.7-3.9-5.6-12.7-8.6v-11.4h64.1v11.4c-11.4,1.5-15.3,2.6-15.3,7.7c0,1.7,0.2,3,1.5,5.8
		l24.5,57.4l23-57.4c1.1-2.8,1.5-4.1,1.5-5.8c0-5.2-3.9-6.2-15.3-7.7v-11.4h45.8v11.4c-8.6,3-10.5,3.9-12.7,8.6l-52,119.1
		c-10.3,23.6-20.6,30.3-34.6,30.3c-9.5,0-16.3-3.9-18.9-7.7v-16.8h14.6c14.6,0,21.9-2.2,28.4-17.6l4.5-10.8L2405.6,377.3z"/>
	<g>
		<g>
			<path class="st0" d="M74.8,297.1L0.6,222.9C0.2,222.5,0,222,0,221.5l0-118.4c0-1.1,0.9-2,2-2l26,0c1.1,0,2,0.9,2,2L30,209
				c0,0.5,0.2,1,0.6,1.4l65.4,65.4c0.8,0.8,0.8,2.1,0,2.8l-18.4,18.4C76.9,297.9,75.6,297.9,74.8,297.1z"/>
		</g>
		<g>
			<path class="st0" d="M315.8,173.1h-26c-1.1,0-2-0.9-2-2V32c0-1.1-0.9-2-2-2h-95.9c-1.1,0-2-0.9-2-2V2c0-1.1,0.9-2,2-2h126
				c1.1,0,2,0.9,2,2v169.1C317.8,172.2,316.9,173.1,315.8,173.1z"/>
		</g>
	</g>
</g>
</svg>
