<svg xmlns="http://www.w3.org/2000/svg" viewBox="0 0 197.2 57.76"><defs><style>.cls-1{fill:#fff;}</style></defs><g id="Layer_2" data-name="Layer 2"><g id="Layer_1-2" data-name="Layer 1"><path class="cls-1" d="M0,33.62V23.85L56.48,0V10.41L11.69,28.79,56.48,47.35V57.76Z"/><path class="cls-1" d="M68.12,38.51V26.58q6.16-7,16.17-7a28.54,28.54,0,0,1,7.33,1,89.14,89.14,0,0,1,10.93,4,48,48,0,0,0,6,2.21,15,15,0,0,0,11.87-1.74,28.7,28.7,0,0,0,7.19-5.7V31.76a25.33,25.33,0,0,1-7.54,5.06,22.27,22.27,0,0,1-8.58,1.57,26.88,26.88,0,0,1-6.66-.81,71.67,71.67,0,0,1-10.06-3.9Q87.89,30.6,83.3,30.6a15.77,15.77,0,0,0-7,1.6A34.94,34.94,0,0,0,68.12,38.51Z"/><path class="cls-1" d="M137.69,38.51V26.58q6.17-7,16.17-7a28.54,28.54,0,0,1,7.33,1,89.77,89.77,0,0,1,10.94,4,46.92,46.92,0,0,0,6,2.21,15.84,15.84,0,0,0,4,.53A16,16,0,0,0,190,25.13a28.7,28.7,0,0,0,7.19-5.7V31.76a25.2,25.2,0,0,1-7.54,5.06,22.27,22.27,0,0,1-8.58,1.57,26.88,26.88,0,0,1-6.66-.81,72.15,72.15,0,0,1-10.06-3.9q-6.9-3.08-11.49-3.08a15.77,15.77,0,0,0-7,1.6A35.15,35.15,0,0,0,137.69,38.51Z"/></g></g></svg>